# xmcd
#
# Track frame offsets:
#	150
#	14346
#	24443
#	36169
#	50838
#	62086
#	80293
#	93721
#	111282
#	127419
#	139906
#	151807
#	163823
#	177530
#
# Disc length: 2506 seconds
#
# Revision: 1
# Processed by: cddbd v1.5.2PL0 Copyright (c) Steve Scherf et al.
# Submitted via: audiograbber 1.83.01
#
DISCID=c709c80e
DTITLE=Dale Watson And His Lone Stars - El Rancho Azul
DYEAR=2013
DGENRE=Country
TTITLE0=Lie When I Drink
TTITLE1=Where Do You Want It
TTITLE2=I Drink To Remember
TTITLE3=Cowboy Boots
TTITLE4=We're Gonna Get Married
TTITLE5=The Daughter's Wedding Song
TTITLE6=Quick Quick Slow Slow
TTITLE7=Slow Quick Quick
TTITLE8=Give Me More Kisses
TTITLE9=Drink Drink Drink
TTITLE10=I Can't Be Satisfied
TTITLE11=I Hate to Drink Alone
TTITLE12=Smokey old bar
TTITLE13=Thanks to tequila
EXTD=
EXTT0=
EXTT1=
EXTT2=
EXTT3=
EXTT4=
EXTT5=
EXTT6=
EXTT7=
EXTT8=
EXTT9=
EXTT10=
EXTT11=
EXTT12=
EXTT13=
PLAYORDER=
